<svg width="64" height="64" viewBox="0 0 64 64" fill="none" xmlns="http://www.w3.org/2000/svg">
<g clip-path="url(#clip0_4_2)">
<rect width="64" height="64" fill="#22C55E"/>
<path d="M18.5 20.25C18.5 19.7859 18.6844 19.3408 19.0126 19.0126C19.3408 18.6844 19.7859 18.5 20.25 18.5H24.0177C24.432 18.5002 24.8327 18.6473 25.1487 18.9152C25.4646 19.1831 25.6753 19.5544 25.7432 19.963L27.0383 27.7242C27.1001 28.0939 27.0417 28.4736 26.8716 28.8076C26.7015 29.1415 26.4286 29.412 26.0933 29.5793L23.3842 30.932C24.3557 33.3394 25.8025 35.5262 27.6381 37.3619C29.4738 39.1975 31.6606 40.6443 34.068 41.6157L35.4225 38.9068C35.5897 38.5717 35.8599 38.2991 36.1935 38.129C36.527 37.9589 36.9064 37.9003 37.2758 37.9618L45.037 39.2568C45.4456 39.3247 45.8169 39.5354 46.0848 39.8513C46.3527 40.1673 46.4998 40.568 46.5 40.9823V44.75C46.5 45.2141 46.3156 45.6592 45.9874 45.9874C45.6592 46.3156 45.2141 46.5 44.75 46.5H41.25C28.685 46.5 18.5 36.315 18.5 23.75V20.25Z" fill="white"/>
</g>
<defs>
<clipPath id="clip0_4_2">
<rect width="64" height="64" rx="32" fill="white"/>
</clipPath>
</defs>
</svg>
