<svg width="64" height="64" viewBox="0 0 64 64" fill="none" xmlns="http://www.w3.org/2000/svg">
<g clip-path="url(#clip0_4_2)">
<rect width="64" height="64" fill="#EF4444"/>
<path d="M39.135 26.536H28.119L27.399 36.112H27.651C28.251 35.272 28.923 34.6 29.667 34.096C30.435 33.592 31.479 33.34 32.799 33.34C33.879 33.34 34.875 33.52 35.787 33.88C36.699 34.24 37.491 34.756 38.163 35.428C38.835 36.076 39.351 36.88 39.711 37.84C40.095 38.8 40.287 39.892 40.287 41.116C40.287 42.34 40.095 43.468 39.711 44.5C39.327 45.508 38.763 46.384 38.019 47.128C37.299 47.848 36.411 48.412 35.355 48.82C34.323 49.228 33.147 49.432 31.827 49.432C30.771 49.432 29.835 49.312 29.019 49.072C28.227 48.832 27.519 48.508 26.895 48.1C26.271 47.692 25.719 47.236 25.239 46.732C24.783 46.228 24.363 45.7 23.979 45.148L26.247 43.42C26.559 43.924 26.883 44.38 27.219 44.788C27.579 45.196 27.963 45.544 28.371 45.832C28.803 46.12 29.295 46.348 29.847 46.516C30.399 46.66 31.059 46.732 31.827 46.732C33.555 46.732 34.863 46.276 35.751 45.364C36.639 44.452 37.083 43.168 37.083 41.512V41.152C37.083 39.496 36.639 38.212 35.751 37.3C34.863 36.388 33.555 35.932 31.827 35.932C30.675 35.932 29.763 36.148 29.091 36.58C28.443 36.988 27.855 37.48 27.327 38.056L24.771 37.696L25.671 23.872H39.135V26.536Z" fill="#FAFAFA"/>
<rect width="64" height="13" fill="#DC2626"/>
</g>
<defs>
<clipPath id="clip0_4_2">
<rect width="64" height="64" rx="32" fill="white"/>
</clipPath>
</defs>
</svg>
