<svg width="64" height="64" viewBox="0 0 64 64" fill="none" xmlns="http://www.w3.org/2000/svg">
<g clip-path="url(#clip0_4_2)">
<rect width="64" height="64" fill="#FAFAFA"/>
<path d="M14.4421 50V47.336H21.4621V27.104H21.2101L14.8741 33.008L13.1101 31.1L19.7701 24.872H24.4861V47.336H30.9661V50H14.4421ZM41.536 35.528C43.24 35.528 44.512 35.144 45.352 34.376C46.216 33.584 46.648 32.576 46.648 31.352V31.1C46.648 29.78 46.228 28.796 45.388 28.148C44.572 27.476 43.492 27.14 42.148 27.14C40.852 27.14 39.796 27.428 38.98 28.004C38.164 28.556 37.492 29.312 36.964 30.272L34.732 28.544C35.044 28.04 35.416 27.548 35.848 27.068C36.304 26.564 36.832 26.12 37.432 25.736C38.032 25.352 38.728 25.04 39.52 24.8C40.312 24.56 41.212 24.44 42.22 24.44C43.276 24.44 44.272 24.584 45.208 24.872C46.144 25.136 46.948 25.544 47.62 26.096C48.316 26.624 48.856 27.284 49.24 28.076C49.648 28.868 49.852 29.768 49.852 30.776C49.852 31.592 49.72 32.324 49.456 32.972C49.216 33.62 48.88 34.184 48.448 34.664C48.016 35.144 47.5 35.552 46.9 35.888C46.324 36.224 45.7 36.476 45.028 36.644V36.788C45.7 36.932 46.348 37.172 46.972 37.508C47.62 37.82 48.184 38.24 48.664 38.768C49.168 39.272 49.564 39.896 49.852 40.64C50.164 41.36 50.32 42.188 50.32 43.124C50.32 44.204 50.116 45.2 49.708 46.112C49.3 47 48.724 47.768 47.98 48.416C47.236 49.04 46.336 49.532 45.28 49.892C44.224 50.252 43.06 50.432 41.788 50.432C40.708 50.432 39.748 50.312 38.908 50.072C38.068 49.832 37.324 49.508 36.676 49.1C36.028 48.692 35.452 48.236 34.948 47.732C34.468 47.228 34.036 46.7 33.652 46.148L35.92 44.42C36.232 44.924 36.568 45.38 36.928 45.788C37.312 46.196 37.732 46.544 38.188 46.832C38.644 47.12 39.16 47.348 39.736 47.516C40.312 47.66 40.984 47.732 41.752 47.732C43.528 47.732 44.872 47.336 45.784 46.544C46.696 45.728 47.152 44.576 47.152 43.088V42.8C47.152 41.312 46.696 40.172 45.784 39.38C44.872 38.564 43.528 38.156 41.752 38.156H38.8V35.528H41.536Z" fill="#09090B"/>
<rect width="64" height="13" fill="#FF3C3C"/>
<rect y="-1" width="64" height="13.2" fill="#DC2626"/>
</g>
<defs>
<clipPath id="clip0_4_2">
<rect width="64" height="64" rx="32" fill="white"/>
</clipPath>
</defs>
</svg>
