<svg width="64" height="64" viewBox="0 0 64 64" fill="none" xmlns="http://www.w3.org/2000/svg">
<g clip-path="url(#clip0_4_2)">
<rect width="64" height="64" fill="#FAFAFA"/>
<path d="M30.4621 50H13.9741V46.904L22.1821 39.344C23.3581 38.264 24.3421 37.124 25.1341 35.924C25.9261 34.7 26.3221 33.476 26.3221 32.252V31.82C26.3221 30.428 25.9381 29.3 25.1701 28.436C24.4021 27.572 23.2381 27.14 21.6781 27.14C20.9101 27.14 20.2381 27.248 19.6621 27.464C19.0861 27.68 18.5821 27.98 18.1501 28.364C17.7421 28.748 17.3941 29.204 17.1061 29.732C16.8421 30.236 16.6261 30.788 16.4581 31.388L13.7581 30.344C13.9981 29.6 14.3221 28.88 14.7301 28.184C15.1621 27.464 15.6901 26.828 16.3141 26.276C16.9621 25.724 17.7301 25.28 18.6181 24.944C19.5301 24.608 20.5981 24.44 21.8221 24.44C23.0461 24.44 24.1381 24.62 25.0981 24.98C26.0581 25.34 26.8621 25.844 27.5101 26.492C28.1581 27.14 28.6501 27.908 28.9861 28.796C29.3461 29.684 29.5261 30.668 29.5261 31.748C29.5261 32.732 29.3821 33.644 29.0941 34.484C28.8301 35.324 28.4581 36.128 27.9781 36.896C27.4981 37.64 26.9101 38.372 26.2141 39.092C25.5421 39.812 24.8101 40.532 24.0181 41.252L17.2501 47.336H30.4621V50ZM42.976 50.432C41.68 50.432 40.504 50.216 39.448 49.784C38.416 49.328 37.528 48.692 36.784 47.876C36.064 47.036 35.512 46.016 35.128 44.816C34.744 43.616 34.552 42.272 34.552 40.784C34.552 38.912 34.828 37.16 35.38 35.528C35.932 33.872 36.64 32.372 37.504 31.028C38.392 29.66 39.364 28.46 40.42 27.428C41.476 26.372 42.508 25.52 43.516 24.872H47.404C46.06 25.856 44.86 26.816 43.804 27.752C42.748 28.688 41.824 29.672 41.032 30.704C40.24 31.712 39.568 32.804 39.016 33.98C38.464 35.132 38.02 36.44 37.684 37.904L37.864 37.976C38.464 36.944 39.232 36.092 40.168 35.42C41.128 34.724 42.376 34.376 43.912 34.376C44.992 34.376 45.988 34.556 46.9 34.916C47.812 35.276 48.592 35.792 49.24 36.464C49.888 37.136 50.392 37.952 50.752 38.912C51.136 39.872 51.328 40.94 51.328 42.116C51.328 43.34 51.124 44.468 50.716 45.5C50.332 46.508 49.768 47.384 49.024 48.128C48.304 48.848 47.428 49.412 46.396 49.82C45.364 50.228 44.224 50.432 42.976 50.432ZM42.94 47.804C44.596 47.804 45.88 47.348 46.792 46.436C47.728 45.524 48.196 44.216 48.196 42.512V42.224C48.196 40.52 47.728 39.212 46.792 38.3C45.88 37.388 44.596 36.932 42.94 36.932C41.284 36.932 39.988 37.388 39.052 38.3C38.14 39.212 37.684 40.52 37.684 42.224V42.512C37.684 44.216 38.14 45.524 39.052 46.436C39.988 47.348 41.284 47.804 42.94 47.804Z" fill="#09090B"/>
<rect width="64" height="13" fill="#FF3C3C"/>
<rect y="-1" width="64" height="13.2" fill="#DC2626"/>
</g>
<defs>
<clipPath id="clip0_4_2">
<rect width="64" height="64" rx="32" fill="white"/>
</clipPath>
</defs>
</svg>
