<svg width="64" height="64" viewBox="0 0 64 64" fill="none" xmlns="http://www.w3.org/2000/svg">
<g clip-path="url(#clip0_4_2)">
<rect width="64" height="64" fill="#FAFAFA"/>
<path d="M30.4621 50H13.9741V46.904L22.1821 39.344C23.3581 38.264 24.3421 37.124 25.1341 35.924C25.9261 34.7 26.3221 33.476 26.3221 32.252V31.82C26.3221 30.428 25.9381 29.3 25.1701 28.436C24.4021 27.572 23.2381 27.14 21.6781 27.14C20.9101 27.14 20.2381 27.248 19.6621 27.464C19.0861 27.68 18.5821 27.98 18.1501 28.364C17.7421 28.748 17.3941 29.204 17.1061 29.732C16.8421 30.236 16.6261 30.788 16.4581 31.388L13.7581 30.344C13.9981 29.6 14.3221 28.88 14.7301 28.184C15.1621 27.464 15.6901 26.828 16.3141 26.276C16.9621 25.724 17.7301 25.28 18.6181 24.944C19.5301 24.608 20.5981 24.44 21.8221 24.44C23.0461 24.44 24.1381 24.62 25.0981 24.98C26.0581 25.34 26.8621 25.844 27.5101 26.492C28.1581 27.14 28.6501 27.908 28.9861 28.796C29.3461 29.684 29.5261 30.668 29.5261 31.748C29.5261 32.732 29.3821 33.644 29.0941 34.484C28.8301 35.324 28.4581 36.128 27.9781 36.896C27.4981 37.64 26.9101 38.372 26.2141 39.092C25.5421 39.812 24.8101 40.532 24.0181 41.252L17.2501 47.336H30.4621V50ZM50.068 27.536H39.052L38.332 37.112H38.584C39.184 36.272 39.856 35.6 40.6 35.096C41.368 34.592 42.412 34.34 43.732 34.34C44.812 34.34 45.808 34.52 46.72 34.88C47.632 35.24 48.424 35.756 49.096 36.428C49.768 37.076 50.284 37.88 50.644 38.84C51.028 39.8 51.22 40.892 51.22 42.116C51.22 43.34 51.028 44.468 50.644 45.5C50.26 46.508 49.696 47.384 48.952 48.128C48.232 48.848 47.344 49.412 46.288 49.82C45.256 50.228 44.08 50.432 42.76 50.432C41.704 50.432 40.768 50.312 39.952 50.072C39.16 49.832 38.452 49.508 37.828 49.1C37.204 48.692 36.652 48.236 36.172 47.732C35.716 47.228 35.296 46.7 34.912 46.148L37.18 44.42C37.492 44.924 37.816 45.38 38.152 45.788C38.512 46.196 38.896 46.544 39.304 46.832C39.736 47.12 40.228 47.348 40.78 47.516C41.332 47.66 41.992 47.732 42.76 47.732C44.488 47.732 45.796 47.276 46.684 46.364C47.572 45.452 48.016 44.168 48.016 42.512V42.152C48.016 40.496 47.572 39.212 46.684 38.3C45.796 37.388 44.488 36.932 42.76 36.932C41.608 36.932 40.696 37.148 40.024 37.58C39.376 37.988 38.788 38.48 38.26 39.056L35.704 38.696L36.604 24.872H50.068V27.536Z" fill="#09090B"/>
<rect width="64" height="13" fill="#FF3C3C"/>
<rect y="-1" width="64" height="13.2" fill="#DC2626"/>
</g>
<defs>
<clipPath id="clip0_4_2">
<rect width="64" height="64" rx="32" fill="white"/>
</clipPath>
</defs>
</svg>
