<svg width="64" height="64" viewBox="0 0 64 64" fill="none" xmlns="http://www.w3.org/2000/svg">
<g clip-path="url(#clip0_4_2)">
<rect width="64" height="64" fill="#FAFAFA"/>
<path d="M14.4421 50V47.336H21.4621V27.104H21.2101L14.8741 33.008L13.1101 31.1L19.7701 24.872H24.4861V47.336H30.9661V50H14.4421ZM42.94 50.432C41.5 50.432 40.24 50.252 39.16 49.892C38.08 49.508 37.168 48.992 36.424 48.344C35.704 47.696 35.152 46.928 34.768 46.04C34.408 45.152 34.228 44.192 34.228 43.16C34.228 41.432 34.696 40.064 35.632 39.056C36.568 38.048 37.792 37.34 39.304 36.932V36.644C37.984 36.188 36.928 35.456 36.136 34.448C35.368 33.416 34.984 32.18 34.984 30.74C34.984 28.82 35.68 27.296 37.072 26.168C38.464 25.016 40.42 24.44 42.94 24.44C45.46 24.44 47.416 25.016 48.808 26.168C50.2 27.296 50.896 28.82 50.896 30.74C50.896 32.18 50.5 33.416 49.708 34.448C48.94 35.456 47.896 36.188 46.576 36.644V36.932C48.088 37.34 49.312 38.048 50.248 39.056C51.184 40.064 51.652 41.432 51.652 43.16C51.652 44.192 51.46 45.152 51.076 46.04C50.716 46.928 50.164 47.696 49.42 48.344C48.7 48.992 47.8 49.508 46.72 49.892C45.64 50.252 44.38 50.432 42.94 50.432ZM42.94 47.804C44.692 47.804 46.048 47.42 47.008 46.652C47.968 45.86 48.448 44.744 48.448 43.304V42.548C48.448 41.108 47.968 40.004 47.008 39.236C46.048 38.444 44.692 38.048 42.94 38.048C41.188 38.048 39.832 38.444 38.872 39.236C37.912 40.004 37.432 41.108 37.432 42.548V43.304C37.432 44.744 37.912 45.86 38.872 46.652C39.832 47.42 41.188 47.804 42.94 47.804ZM42.94 35.528C44.524 35.528 45.724 35.192 46.54 34.52C47.356 33.848 47.764 32.864 47.764 31.568V31.028C47.764 29.732 47.356 28.748 46.54 28.076C45.724 27.404 44.524 27.068 42.94 27.068C41.356 27.068 40.156 27.404 39.34 28.076C38.524 28.748 38.116 29.732 38.116 31.028V31.568C38.116 32.864 38.524 33.848 39.34 34.52C40.156 35.192 41.356 35.528 42.94 35.528Z" fill="#09090B"/>
<rect width="64" height="13" fill="#FF3C3C"/>
<rect y="-1" width="64" height="13.2" fill="#DC2626"/>
</g>
<defs>
<clipPath id="clip0_4_2">
<rect width="64" height="64" rx="32" fill="white"/>
</clipPath>
</defs>
</svg>
