<svg width="64" height="64" viewBox="0 0 64 64" fill="none" xmlns="http://www.w3.org/2000/svg">
<g clip-path="url(#clip0_4_2)">
<rect width="64" height="64" fill="#FAFAFA"/>
<path d="M30.603 35.528C32.307 35.528 33.579 35.144 34.419 34.376C35.283 33.584 35.715 32.576 35.715 31.352V31.1C35.715 29.78 35.295 28.796 34.455 28.148C33.639 27.476 32.559 27.14 31.215 27.14C29.919 27.14 28.863 27.428 28.047 28.004C27.231 28.556 26.559 29.312 26.031 30.272L23.799 28.544C24.111 28.04 24.483 27.548 24.915 27.068C25.371 26.564 25.899 26.12 26.499 25.736C27.099 25.352 27.795 25.04 28.587 24.8C29.379 24.56 30.279 24.44 31.287 24.44C32.343 24.44 33.339 24.584 34.275 24.872C35.211 25.136 36.015 25.544 36.687 26.096C37.383 26.624 37.923 27.284 38.307 28.076C38.715 28.868 38.919 29.768 38.919 30.776C38.919 31.592 38.787 32.324 38.523 32.972C38.283 33.62 37.947 34.184 37.515 34.664C37.083 35.144 36.567 35.552 35.967 35.888C35.391 36.224 34.767 36.476 34.095 36.644V36.788C34.767 36.932 35.415 37.172 36.039 37.508C36.687 37.82 37.251 38.24 37.731 38.768C38.235 39.272 38.631 39.896 38.919 40.64C39.231 41.36 39.387 42.188 39.387 43.124C39.387 44.204 39.183 45.2 38.775 46.112C38.367 47 37.791 47.768 37.047 48.416C36.303 49.04 35.403 49.532 34.347 49.892C33.291 50.252 32.127 50.432 30.855 50.432C29.775 50.432 28.815 50.312 27.975 50.072C27.135 49.832 26.391 49.508 25.743 49.1C25.095 48.692 24.519 48.236 24.015 47.732C23.535 47.228 23.103 46.7 22.719 46.148L24.987 44.42C25.299 44.924 25.635 45.38 25.995 45.788C26.379 46.196 26.799 46.544 27.255 46.832C27.711 47.12 28.227 47.348 28.803 47.516C29.379 47.66 30.051 47.732 30.819 47.732C32.595 47.732 33.939 47.336 34.851 46.544C35.763 45.728 36.219 44.576 36.219 43.088V42.8C36.219 41.312 35.763 40.172 34.851 39.38C33.939 38.564 32.595 38.156 30.819 38.156H27.867V35.528H30.603Z" fill="#09090B"/>
<rect width="64" height="13" fill="#FF3C3C"/>
<rect y="-1" width="64" height="13.2" fill="#DC2626"/>
</g>
<defs>
<clipPath id="clip0_4_2">
<rect width="64" height="64" rx="32" fill="white"/>
</clipPath>
</defs>
</svg>
