<svg width="64" height="64" viewBox="0 0 64 64" fill="none" xmlns="http://www.w3.org/2000/svg">
<g clip-path="url(#clip0_4_2)">
<rect width="64" height="64" fill="#FAFAFA"/>
<path d="M32.043 50.432C30.747 50.432 29.571 50.216 28.515 49.784C27.483 49.328 26.595 48.692 25.851 47.876C25.131 47.036 24.579 46.016 24.195 44.816C23.811 43.616 23.619 42.272 23.619 40.784C23.619 38.912 23.895 37.16 24.447 35.528C24.999 33.872 25.707 32.372 26.571 31.028C27.459 29.66 28.431 28.46 29.487 27.428C30.543 26.372 31.575 25.52 32.583 24.872H36.471C35.127 25.856 33.927 26.816 32.871 27.752C31.815 28.688 30.891 29.672 30.099 30.704C29.307 31.712 28.635 32.804 28.083 33.98C27.531 35.132 27.087 36.44 26.751 37.904L26.931 37.976C27.531 36.944 28.299 36.092 29.235 35.42C30.195 34.724 31.443 34.376 32.979 34.376C34.059 34.376 35.055 34.556 35.967 34.916C36.879 35.276 37.659 35.792 38.307 36.464C38.955 37.136 39.459 37.952 39.819 38.912C40.203 39.872 40.395 40.94 40.395 42.116C40.395 43.34 40.191 44.468 39.783 45.5C39.399 46.508 38.835 47.384 38.091 48.128C37.371 48.848 36.495 49.412 35.463 49.82C34.431 50.228 33.291 50.432 32.043 50.432ZM32.007 47.804C33.663 47.804 34.947 47.348 35.859 46.436C36.795 45.524 37.263 44.216 37.263 42.512V42.224C37.263 40.52 36.795 39.212 35.859 38.3C34.947 37.388 33.663 36.932 32.007 36.932C30.351 36.932 29.055 37.388 28.119 38.3C27.207 39.212 26.751 40.52 26.751 42.224V42.512C26.751 44.216 27.207 45.524 28.119 46.436C29.055 47.348 30.351 47.804 32.007 47.804Z" fill="#09090B"/>
<rect width="64" height="13" fill="#FF3C3C"/>
<rect y="-1" width="64" height="13.2" fill="#DC2626"/>
</g>
<defs>
<clipPath id="clip0_4_2">
<rect width="64" height="64" rx="32" fill="white"/>
</clipPath>
</defs>
</svg>
