<svg width="64" height="64" viewBox="0 0 64 64" fill="none" xmlns="http://www.w3.org/2000/svg">
<g clip-path="url(#clip0_4_2)">
<rect width="64" height="64" fill="#FAFAFA"/>
<path d="M32.007 50.432C30.567 50.432 29.307 50.252 28.227 49.892C27.147 49.508 26.235 48.992 25.491 48.344C24.771 47.696 24.219 46.928 23.835 46.04C23.475 45.152 23.295 44.192 23.295 43.16C23.295 41.432 23.763 40.064 24.699 39.056C25.635 38.048 26.859 37.34 28.371 36.932V36.644C27.051 36.188 25.995 35.456 25.203 34.448C24.435 33.416 24.051 32.18 24.051 30.74C24.051 28.82 24.747 27.296 26.139 26.168C27.531 25.016 29.487 24.44 32.007 24.44C34.527 24.44 36.483 25.016 37.875 26.168C39.267 27.296 39.963 28.82 39.963 30.74C39.963 32.18 39.567 33.416 38.775 34.448C38.007 35.456 36.963 36.188 35.643 36.644V36.932C37.155 37.34 38.379 38.048 39.315 39.056C40.251 40.064 40.719 41.432 40.719 43.16C40.719 44.192 40.527 45.152 40.143 46.04C39.783 46.928 39.231 47.696 38.487 48.344C37.767 48.992 36.867 49.508 35.787 49.892C34.707 50.252 33.447 50.432 32.007 50.432ZM32.007 47.804C33.759 47.804 35.115 47.42 36.075 46.652C37.035 45.86 37.515 44.744 37.515 43.304V42.548C37.515 41.108 37.035 40.004 36.075 39.236C35.115 38.444 33.759 38.048 32.007 38.048C30.255 38.048 28.899 38.444 27.939 39.236C26.979 40.004 26.499 41.108 26.499 42.548V43.304C26.499 44.744 26.979 45.86 27.939 46.652C28.899 47.42 30.255 47.804 32.007 47.804ZM32.007 35.528C33.591 35.528 34.791 35.192 35.607 34.52C36.423 33.848 36.831 32.864 36.831 31.568V31.028C36.831 29.732 36.423 28.748 35.607 28.076C34.791 27.404 33.591 27.068 32.007 27.068C30.423 27.068 29.223 27.404 28.407 28.076C27.591 28.748 27.183 29.732 27.183 31.028V31.568C27.183 32.864 27.591 33.848 28.407 34.52C29.223 35.192 30.423 35.528 32.007 35.528Z" fill="#09090B"/>
<rect width="64" height="13" fill="#FF3C3C"/>
<rect y="-1" width="64" height="13.2" fill="#DC2626"/>
</g>
<defs>
<clipPath id="clip0_4_2">
<rect width="64" height="64" rx="32" fill="white"/>
</clipPath>
</defs>
</svg>
