<svg width="64" height="64" viewBox="0 0 64 64" fill="none" xmlns="http://www.w3.org/2000/svg">
<g clip-path="url(#clip0_4_2)">
<rect width="64" height="64" fill="#FAFAFA"/>
<path d="M14.4421 50V47.336H21.4621V27.104H21.2101L14.8741 33.008L13.1101 31.1L19.7701 24.872H24.4861V47.336H30.9661V50H14.4421ZM42.94 50.432C39.94 50.432 37.744 49.292 36.352 47.012C34.984 44.732 34.3 41.54 34.3 37.436C34.3 33.332 34.984 30.14 36.352 27.86C37.744 25.58 39.94 24.44 42.94 24.44C45.94 24.44 48.124 25.58 49.492 27.86C50.884 30.14 51.58 33.332 51.58 37.436C51.58 41.54 50.884 44.732 49.492 47.012C48.124 49.292 45.94 50.432 42.94 50.432ZM42.94 47.804C43.924 47.804 44.764 47.6 45.46 47.192C46.156 46.784 46.72 46.208 47.152 45.464C47.584 44.72 47.896 43.844 48.088 42.836C48.304 41.828 48.412 40.712 48.412 39.488V35.384C48.412 34.16 48.304 33.044 48.088 32.036C47.896 31.028 47.584 30.152 47.152 29.408C46.72 28.664 46.156 28.088 45.46 27.68C44.764 27.272 43.924 27.068 42.94 27.068C41.956 27.068 41.116 27.272 40.42 27.68C39.724 28.088 39.16 28.664 38.728 29.408C38.296 30.152 37.972 31.028 37.756 32.036C37.564 33.044 37.468 34.16 37.468 35.384V39.488C37.468 40.712 37.564 41.828 37.756 42.836C37.972 43.844 38.296 44.72 38.728 45.464C39.16 46.208 39.724 46.784 40.42 47.192C41.116 47.6 41.956 47.804 42.94 47.804Z" fill="#09090B"/>
<rect width="64" height="13" fill="#FF3C3C"/>
<rect y="-1" width="64" height="13.2" fill="#DC2626"/>
</g>
<defs>
<clipPath id="clip0_4_2">
<rect width="64" height="64" rx="32" fill="white"/>
</clipPath>
</defs>
</svg>
