<svg width="64" height="64" viewBox="0 0 64 64" fill="none" xmlns="http://www.w3.org/2000/svg">
<g clip-path="url(#clip0_4_2)">
<rect width="64" height="64" fill="#FAFAFA"/>
<path d="M30.4621 50H13.9741V46.904L22.1821 39.344C23.3581 38.264 24.3421 37.124 25.1341 35.924C25.9261 34.7 26.3221 33.476 26.3221 32.252V31.82C26.3221 30.428 25.9381 29.3 25.1701 28.436C24.4021 27.572 23.2381 27.14 21.6781 27.14C20.9101 27.14 20.2381 27.248 19.6621 27.464C19.0861 27.68 18.5821 27.98 18.1501 28.364C17.7421 28.748 17.3941 29.204 17.1061 29.732C16.8421 30.236 16.6261 30.788 16.4581 31.388L13.7581 30.344C13.9981 29.6 14.3221 28.88 14.7301 28.184C15.1621 27.464 15.6901 26.828 16.3141 26.276C16.9621 25.724 17.7301 25.28 18.6181 24.944C19.5301 24.608 20.5981 24.44 21.8221 24.44C23.0461 24.44 24.1381 24.62 25.0981 24.98C26.0581 25.34 26.8621 25.844 27.5101 26.492C28.1581 27.14 28.6501 27.908 28.9861 28.796C29.3461 29.684 29.5261 30.668 29.5261 31.748C29.5261 32.732 29.3821 33.644 29.0941 34.484C28.8301 35.324 28.4581 36.128 27.9781 36.896C27.4981 37.64 26.9101 38.372 26.2141 39.092C25.5421 39.812 24.8101 40.532 24.0181 41.252L17.2501 47.336H30.4621V50ZM42.94 50.432C39.94 50.432 37.744 49.292 36.352 47.012C34.984 44.732 34.3 41.54 34.3 37.436C34.3 33.332 34.984 30.14 36.352 27.86C37.744 25.58 39.94 24.44 42.94 24.44C45.94 24.44 48.124 25.58 49.492 27.86C50.884 30.14 51.58 33.332 51.58 37.436C51.58 41.54 50.884 44.732 49.492 47.012C48.124 49.292 45.94 50.432 42.94 50.432ZM42.94 47.804C43.924 47.804 44.764 47.6 45.46 47.192C46.156 46.784 46.72 46.208 47.152 45.464C47.584 44.72 47.896 43.844 48.088 42.836C48.304 41.828 48.412 40.712 48.412 39.488V35.384C48.412 34.16 48.304 33.044 48.088 32.036C47.896 31.028 47.584 30.152 47.152 29.408C46.72 28.664 46.156 28.088 45.46 27.68C44.764 27.272 43.924 27.068 42.94 27.068C41.956 27.068 41.116 27.272 40.42 27.68C39.724 28.088 39.16 28.664 38.728 29.408C38.296 30.152 37.972 31.028 37.756 32.036C37.564 33.044 37.468 34.16 37.468 35.384V39.488C37.468 40.712 37.564 41.828 37.756 42.836C37.972 43.844 38.296 44.72 38.728 45.464C39.16 46.208 39.724 46.784 40.42 47.192C41.116 47.6 41.956 47.804 42.94 47.804Z" fill="#09090B"/>
<rect width="64" height="13" fill="#FF3C3C"/>
<rect y="-1" width="64" height="13.2" fill="#DC2626"/>
</g>
<defs>
<clipPath id="clip0_4_2">
<rect width="64" height="64" rx="32" fill="white"/>
</clipPath>
</defs>
</svg>
