<svg width="64" height="64" viewBox="0 0 64 64" fill="none" xmlns="http://www.w3.org/2000/svg">
<g clip-path="url(#clip0_4_2)">
<rect width="64" height="64" fill="#FAFAFA"/>
<path d="M30.4621 50H13.9741V46.904L22.1821 39.344C23.3581 38.264 24.3421 37.124 25.1341 35.924C25.9261 34.7 26.3221 33.476 26.3221 32.252V31.82C26.3221 30.428 25.9381 29.3 25.1701 28.436C24.4021 27.572 23.2381 27.14 21.6781 27.14C20.9101 27.14 20.2381 27.248 19.6621 27.464C19.0861 27.68 18.5821 27.98 18.1501 28.364C17.7421 28.748 17.3941 29.204 17.1061 29.732C16.8421 30.236 16.6261 30.788 16.4581 31.388L13.7581 30.344C13.9981 29.6 14.3221 28.88 14.7301 28.184C15.1621 27.464 15.6901 26.828 16.3141 26.276C16.9621 25.724 17.7301 25.28 18.6181 24.944C19.5301 24.608 20.5981 24.44 21.8221 24.44C23.0461 24.44 24.1381 24.62 25.0981 24.98C26.0581 25.34 26.8621 25.844 27.5101 26.492C28.1581 27.14 28.6501 27.908 28.9861 28.796C29.3461 29.684 29.5261 30.668 29.5261 31.748C29.5261 32.732 29.3821 33.644 29.0941 34.484C28.8301 35.324 28.4581 36.128 27.9781 36.896C27.4981 37.64 26.9101 38.372 26.2141 39.092C25.5421 39.812 24.8101 40.532 24.0181 41.252L17.2501 47.336H30.4621V50ZM51.328 50H34.84V46.904L43.048 39.344C44.224 38.264 45.208 37.124 46 35.924C46.792 34.7 47.188 33.476 47.188 32.252V31.82C47.188 30.428 46.804 29.3 46.036 28.436C45.268 27.572 44.104 27.14 42.544 27.14C41.776 27.14 41.104 27.248 40.528 27.464C39.952 27.68 39.448 27.98 39.016 28.364C38.608 28.748 38.26 29.204 37.972 29.732C37.708 30.236 37.492 30.788 37.324 31.388L34.624 30.344C34.864 29.6 35.188 28.88 35.596 28.184C36.028 27.464 36.556 26.828 37.18 26.276C37.828 25.724 38.596 25.28 39.484 24.944C40.396 24.608 41.464 24.44 42.688 24.44C43.912 24.44 45.004 24.62 45.964 24.98C46.924 25.34 47.728 25.844 48.376 26.492C49.024 27.14 49.516 27.908 49.852 28.796C50.212 29.684 50.392 30.668 50.392 31.748C50.392 32.732 50.248 33.644 49.96 34.484C49.696 35.324 49.324 36.128 48.844 36.896C48.364 37.64 47.776 38.372 47.08 39.092C46.408 39.812 45.676 40.532 44.884 41.252L38.116 47.336H51.328V50Z" fill="#09090B"/>
<rect width="64" height="13" fill="#FF3C3C"/>
<rect y="-1" width="64" height="13.2" fill="#DC2626"/>
</g>
<defs>
<clipPath id="clip0_4_2">
<rect width="64" height="64" rx="32" fill="white"/>
</clipPath>
</defs>
</svg>
