<svg width="64" height="64" viewBox="0 0 64 64" fill="none" xmlns="http://www.w3.org/2000/svg">
<g clip-path="url(#clip0_4_2)">
<rect width="64" height="64" fill="#FAFAFA"/>
<path d="M14.4421 50V47.336H21.4621V27.104H21.2101L14.8741 33.008L13.1101 31.1L19.7701 24.872H24.4861V47.336H30.9661V50H14.4421ZM50.068 27.536H39.052L38.332 37.112H38.584C39.184 36.272 39.856 35.6 40.6 35.096C41.368 34.592 42.412 34.34 43.732 34.34C44.812 34.34 45.808 34.52 46.72 34.88C47.632 35.24 48.424 35.756 49.096 36.428C49.768 37.076 50.284 37.88 50.644 38.84C51.028 39.8 51.22 40.892 51.22 42.116C51.22 43.34 51.028 44.468 50.644 45.5C50.26 46.508 49.696 47.384 48.952 48.128C48.232 48.848 47.344 49.412 46.288 49.82C45.256 50.228 44.08 50.432 42.76 50.432C41.704 50.432 40.768 50.312 39.952 50.072C39.16 49.832 38.452 49.508 37.828 49.1C37.204 48.692 36.652 48.236 36.172 47.732C35.716 47.228 35.296 46.7 34.912 46.148L37.18 44.42C37.492 44.924 37.816 45.38 38.152 45.788C38.512 46.196 38.896 46.544 39.304 46.832C39.736 47.12 40.228 47.348 40.78 47.516C41.332 47.66 41.992 47.732 42.76 47.732C44.488 47.732 45.796 47.276 46.684 46.364C47.572 45.452 48.016 44.168 48.016 42.512V42.152C48.016 40.496 47.572 39.212 46.684 38.3C45.796 37.388 44.488 36.932 42.76 36.932C41.608 36.932 40.696 37.148 40.024 37.58C39.376 37.988 38.788 38.48 38.26 39.056L35.704 38.696L36.604 24.872H50.068V27.536Z" fill="#09090B"/>
<rect width="64" height="13" fill="#FF3C3C"/>
<rect y="-1" width="64" height="13.2" fill="#DC2626"/>
</g>
<defs>
<clipPath id="clip0_4_2">
<rect width="64" height="64" rx="32" fill="white"/>
</clipPath>
</defs>
</svg>
