<svg width="64" height="64" viewBox="0 0 64 64" fill="none" xmlns="http://www.w3.org/2000/svg">
<g clip-path="url(#clip0_4_2)">
<rect width="64" height="64" fill="#FAFAFA"/>
<path d="M40.395 50H23.907V46.904L32.115 39.344C33.291 38.264 34.275 37.124 35.067 35.924C35.859 34.7 36.255 33.476 36.255 32.252V31.82C36.255 30.428 35.871 29.3 35.103 28.436C34.335 27.572 33.171 27.14 31.611 27.14C30.843 27.14 30.171 27.248 29.595 27.464C29.019 27.68 28.515 27.98 28.083 28.364C27.675 28.748 27.327 29.204 27.039 29.732C26.775 30.236 26.559 30.788 26.391 31.388L23.691 30.344C23.931 29.6 24.255 28.88 24.663 28.184C25.095 27.464 25.623 26.828 26.247 26.276C26.895 25.724 27.663 25.28 28.551 24.944C29.463 24.608 30.531 24.44 31.755 24.44C32.979 24.44 34.071 24.62 35.031 24.98C35.991 25.34 36.795 25.844 37.443 26.492C38.091 27.14 38.583 27.908 38.919 28.796C39.279 29.684 39.459 30.668 39.459 31.748C39.459 32.732 39.315 33.644 39.027 34.484C38.763 35.324 38.391 36.128 37.911 36.896C37.431 37.64 36.843 38.372 36.147 39.092C35.475 39.812 34.743 40.532 33.951 41.252L27.183 47.336H40.395V50Z" fill="#09090B"/>
<rect width="64" height="13" fill="#FF3C3C"/>
<rect y="-1" width="64" height="13.2" fill="#DC2626"/>
</g>
<defs>
<clipPath id="clip0_4_2">
<rect width="64" height="64" rx="32" fill="white"/>
</clipPath>
</defs>
</svg>
