<svg width="64" height="64" viewBox="0 0 64 64" fill="none" xmlns="http://www.w3.org/2000/svg">
<g clip-path="url(#clip0_4_2)">
<rect width="64" height="64" fill="#FAFAFA"/>
<path d="M40.395 34.088C40.395 35.96 40.119 37.724 39.567 39.38C39.015 41.012 38.295 42.512 37.407 43.88C36.543 45.224 35.583 46.424 34.527 47.48C33.471 48.512 32.439 49.352 31.431 50H27.543C28.887 49.016 30.087 48.056 31.143 47.12C32.199 46.184 33.123 45.212 33.915 44.204C34.707 43.172 35.379 42.08 35.931 40.928C36.483 39.752 36.927 38.432 37.263 36.968L37.083 36.896C36.483 37.928 35.703 38.792 34.743 39.488C33.807 40.16 32.571 40.496 31.035 40.496C29.955 40.496 28.959 40.316 28.047 39.956C27.135 39.596 26.355 39.08 25.707 38.408C25.059 37.736 24.543 36.932 24.159 35.996C23.799 35.036 23.619 33.956 23.619 32.756C23.619 31.532 23.811 30.416 24.195 29.408C24.603 28.376 25.167 27.5 25.887 26.78C26.631 26.036 27.507 25.46 28.515 25.052C29.547 24.644 30.699 24.44 31.971 24.44C33.267 24.44 34.431 24.668 35.463 25.124C36.519 25.556 37.407 26.192 38.127 27.032C38.871 27.848 39.435 28.856 39.819 30.056C40.203 31.256 40.395 32.6 40.395 34.088ZM32.007 37.94C33.663 37.94 34.947 37.484 35.859 36.572C36.795 35.66 37.263 34.352 37.263 32.648V32.36C37.263 30.656 36.795 29.348 35.859 28.436C34.947 27.524 33.663 27.068 32.007 27.068C30.351 27.068 29.055 27.524 28.119 28.436C27.207 29.348 26.751 30.656 26.751 32.36V32.648C26.751 34.352 27.207 35.66 28.119 36.572C29.055 37.484 30.351 37.94 32.007 37.94Z" fill="#09090B"/>
<rect width="64" height="13" fill="#FF3C3C"/>
<rect y="-1" width="64" height="13.2" fill="#DC2626"/>
</g>
<defs>
<clipPath id="clip0_4_2">
<rect width="64" height="64" rx="32" fill="white"/>
</clipPath>
</defs>
</svg>
