<svg width="64" height="64" viewBox="0 0 64 64" fill="none" xmlns="http://www.w3.org/2000/svg">
<g clip-path="url(#clip0_4_2)">
<rect width="64" height="64" fill="#FAFAFA"/>
<path d="M20.6701 35.528C22.3741 35.528 23.6461 35.144 24.4861 34.376C25.3501 33.584 25.7821 32.576 25.7821 31.352V31.1C25.7821 29.78 25.3621 28.796 24.5221 28.148C23.7061 27.476 22.6261 27.14 21.2821 27.14C19.9861 27.14 18.9301 27.428 18.1141 28.004C17.2981 28.556 16.6261 29.312 16.0981 30.272L13.8661 28.544C14.1781 28.04 14.5501 27.548 14.9821 27.068C15.4381 26.564 15.9661 26.12 16.5661 25.736C17.1661 25.352 17.8621 25.04 18.6541 24.8C19.4461 24.56 20.3461 24.44 21.3541 24.44C22.4101 24.44 23.4061 24.584 24.3421 24.872C25.2781 25.136 26.0821 25.544 26.7541 26.096C27.4501 26.624 27.9901 27.284 28.3741 28.076C28.7821 28.868 28.9861 29.768 28.9861 30.776C28.9861 31.592 28.8541 32.324 28.5901 32.972C28.3501 33.62 28.0141 34.184 27.5821 34.664C27.1501 35.144 26.6341 35.552 26.0341 35.888C25.4581 36.224 24.8341 36.476 24.1621 36.644V36.788C24.8341 36.932 25.4821 37.172 26.1061 37.508C26.7541 37.82 27.3181 38.24 27.7981 38.768C28.3021 39.272 28.6981 39.896 28.9861 40.64C29.2981 41.36 29.4541 42.188 29.4541 43.124C29.4541 44.204 29.2501 45.2 28.8421 46.112C28.4341 47 27.8581 47.768 27.1141 48.416C26.3701 49.04 25.4701 49.532 24.4141 49.892C23.3581 50.252 22.1941 50.432 20.9221 50.432C19.8421 50.432 18.8821 50.312 18.0421 50.072C17.2021 49.832 16.4581 49.508 15.8101 49.1C15.1621 48.692 14.5861 48.236 14.0821 47.732C13.6021 47.228 13.1701 46.7 12.7861 46.148L15.0541 44.42C15.3661 44.924 15.7021 45.38 16.0621 45.788C16.4461 46.196 16.8661 46.544 17.3221 46.832C17.7781 47.12 18.2941 47.348 18.8701 47.516C19.4461 47.66 20.1181 47.732 20.8861 47.732C22.6621 47.732 24.0061 47.336 24.9181 46.544C25.8301 45.728 26.2861 44.576 26.2861 43.088V42.8C26.2861 41.312 25.8301 40.172 24.9181 39.38C24.0061 38.564 22.6621 38.156 20.8861 38.156H17.9341V35.528H20.6701ZM35.308 50V47.336H42.328V27.104H42.076L35.74 33.008L33.976 31.1L40.636 24.872H45.352V47.336H51.832V50H35.308Z" fill="#09090B"/>
<rect width="64" height="13" fill="#FF3C3C"/>
<rect y="-1" width="64" height="13.2" fill="#DC2626"/>
</g>
<defs>
<clipPath id="clip0_4_2">
<rect width="64" height="64" rx="32" fill="white"/>
</clipPath>
</defs>
</svg>
