<svg width="64" height="64" viewBox="0 0 64 64" fill="none" xmlns="http://www.w3.org/2000/svg">
<g clip-path="url(#clip0_4_2)">
<rect width="64" height="64" fill="#FAFAFA"/>
<path d="M39.135 27.536H28.119L27.399 37.112H27.651C28.251 36.272 28.923 35.6 29.667 35.096C30.435 34.592 31.479 34.34 32.799 34.34C33.879 34.34 34.875 34.52 35.787 34.88C36.699 35.24 37.491 35.756 38.163 36.428C38.835 37.076 39.351 37.88 39.711 38.84C40.095 39.8 40.287 40.892 40.287 42.116C40.287 43.34 40.095 44.468 39.711 45.5C39.327 46.508 38.763 47.384 38.019 48.128C37.299 48.848 36.411 49.412 35.355 49.82C34.323 50.228 33.147 50.432 31.827 50.432C30.771 50.432 29.835 50.312 29.019 50.072C28.227 49.832 27.519 49.508 26.895 49.1C26.271 48.692 25.719 48.236 25.239 47.732C24.783 47.228 24.363 46.7 23.979 46.148L26.247 44.42C26.559 44.924 26.883 45.38 27.219 45.788C27.579 46.196 27.963 46.544 28.371 46.832C28.803 47.12 29.295 47.348 29.847 47.516C30.399 47.66 31.059 47.732 31.827 47.732C33.555 47.732 34.863 47.276 35.751 46.364C36.639 45.452 37.083 44.168 37.083 42.512V42.152C37.083 40.496 36.639 39.212 35.751 38.3C34.863 37.388 33.555 36.932 31.827 36.932C30.675 36.932 29.763 37.148 29.091 37.58C28.443 37.988 27.855 38.48 27.327 39.056L24.771 38.696L25.671 24.872H39.135V27.536Z" fill="#09090B"/>
<rect width="64" height="13" fill="#FF3C3C"/>
<rect y="-1" width="64" height="13.2" fill="#DC2626"/>
</g>
<defs>
<clipPath id="clip0_4_2">
<rect width="64" height="64" rx="32" fill="white"/>
</clipPath>
</defs>
</svg>
