<svg width="64" height="64" viewBox="0 0 64 64" fill="none" xmlns="http://www.w3.org/2000/svg">
<g clip-path="url(#clip0_4_2)">
<rect width="64" height="64" fill="#FAFAFA"/>
<path d="M14.4421 50V47.336H21.4621V27.104H21.2101L14.8741 33.008L13.1101 31.1L19.7701 24.872H24.4861V47.336H30.9661V50H14.4421ZM51.328 34.088C51.328 35.96 51.052 37.724 50.5 39.38C49.948 41.012 49.228 42.512 48.34 43.88C47.476 45.224 46.516 46.424 45.46 47.48C44.404 48.512 43.372 49.352 42.364 50H38.476C39.82 49.016 41.02 48.056 42.076 47.12C43.132 46.184 44.056 45.212 44.848 44.204C45.64 43.172 46.312 42.08 46.864 40.928C47.416 39.752 47.86 38.432 48.196 36.968L48.016 36.896C47.416 37.928 46.636 38.792 45.676 39.488C44.74 40.16 43.504 40.496 41.968 40.496C40.888 40.496 39.892 40.316 38.98 39.956C38.068 39.596 37.288 39.08 36.64 38.408C35.992 37.736 35.476 36.932 35.092 35.996C34.732 35.036 34.552 33.956 34.552 32.756C34.552 31.532 34.744 30.416 35.128 29.408C35.536 28.376 36.1 27.5 36.82 26.78C37.564 26.036 38.44 25.46 39.448 25.052C40.48 24.644 41.632 24.44 42.904 24.44C44.2 24.44 45.364 24.668 46.396 25.124C47.452 25.556 48.34 26.192 49.06 27.032C49.804 27.848 50.368 28.856 50.752 30.056C51.136 31.256 51.328 32.6 51.328 34.088ZM42.94 37.94C44.596 37.94 45.88 37.484 46.792 36.572C47.728 35.66 48.196 34.352 48.196 32.648V32.36C48.196 30.656 47.728 29.348 46.792 28.436C45.88 27.524 44.596 27.068 42.94 27.068C41.284 27.068 39.988 27.524 39.052 28.436C38.14 29.348 37.684 30.656 37.684 32.36V32.648C37.684 34.352 38.14 35.66 39.052 36.572C39.988 37.484 41.284 37.94 42.94 37.94Z" fill="#09090B"/>
<rect width="64" height="13" fill="#FF3C3C"/>
<rect y="-1" width="64" height="13.2" fill="#DC2626"/>
</g>
<defs>
<clipPath id="clip0_4_2">
<rect width="64" height="64" rx="32" fill="white"/>
</clipPath>
</defs>
</svg>
